 <svg version="1.0" xmlns="http://www.w3.org/2000/svg"  width="300.000000pt" height="300.000000pt" viewBox="0 0 300.000000 300.000000"  preserveAspectRatio="xMidYMid meet">  <g transform="translate(0.000000,300.000000) scale(0.100000,-0.100000)" fill="#000000" stroke="none"> <path d="M1384 2802 c-40 -26 -95 -250 -134 -542 -16 -124 -50 -311 -62 -342 -17 -45 -39 -55 -148 -72 -99 -15 -381 -59 -480 -76 -127 -20 -283 -52 -317 -64 -85 -29 -43 -74 163 -171 346 -165 491 -233 508 -239 19 -7 19 -6 2 13 -10 11 -23 18 -27 15 -5 -3 -22 4 -38 15 -16 12 -34 21 -40 21 -22 0 -60 24 -54 34 3 6 3 8 -2 4 -4 -4 -15 -2 -23 4 -8 7 -41 24 -73 39 -33 14 -57 28 -54 31 3 2 -1 5 -9 5 -22 0 -166 66 -161 74 5 8 -19 19 -41 19 -7 0 -28 9 -46 21 l-33 20 35 -7 c19 -3 85 -22 145 -40 105 -32 145 -41 133 -28 -4 3 -12 6 -20 8 -7 1 -17 4 -23 7 -5 4 -40 14 -77 24 -40 10 -65 22 -61 28 3 6 2 8 -3 4 -10 -6 -135 20 -144 30 -3 3 14 3 37 -1 24 -3 75 -9 115 -12 40 -3 93 -9 118 -14 25 -5 79 -11 120 -14 113 -9 170 -18 166 -25 -3 -4 11 -5 30 -3 19 2 40 0 47 -6 6 -5 43 -13 80 -17 37 -4 82 -11 98 -15 17 -5 85 -14 152 -21 118 -12 248 -44 251 -63 0 -5 -15 -14 -34 -21 -19 -7 -71 -29 -115 -50 -44 -21 -98 -44 -120 -51 -32 -10 -35 -13 -15 -14 21 0 16 -5 -25 -25 -27 -14 -58 -25 -67 -25 -10 0 -18 -7 -18 -15 0 -12 4 -12 28 0 15 8 60 29 100 46 39 18 72 36 72 40 0 5 3 8 8 7 12 -3 52 13 52 21 0 4 18 14 40 21 22 7 40 16 40 20 0 4 15 5 33 3 26 -3 28 -1 12 6 -16 8 -17 10 -4 10 27 1 31 31 7 50 l-21 18 29 6 c43 9 57 37 39 80 -8 19 -24 41 -37 49 -42 28 -88 75 -81 81 3 4 -1 7 -9 7 -8 0 -39 26 -67 58 -29 31 -66 72 -83 90 -26 28 -29 36 -20 60 16 41 22 91 13 96 -5 3 -11 -15 -15 -41 -6 -45 -20 -73 -37 -73 -8 0 -6 29 7 94 2 11 7 36 10 53 3 18 9 31 13 29 4 -3 5 11 3 29 -2 18 1 50 8 70 7 21 14 56 15 79 6 79 14 144 25 187 13 54 17 72 25 129 3 25 9 52 12 60 8 18 10 27 12 40 0 6 4 10 9 10 4 0 7 -79 6 -174 0 -129 -4 -179 -14 -191 -7 -8 -10 -18 -7 -21 3 -3 11 5 18 18 15 26 16 30 18 60 2 31 12 16 17 -27 2 -20 9 -45 14 -55 9 -16 21 -85 35 -194 3 -27 8 -53 10 -56 3 -4 11 -47 20 -95 12 -71 13 -90 3 -97 -10 -6 -10 -8 0 -8 7 0 12 -14 12 -34 0 -19 4 -46 10 -61 5 -14 11 -39 12 -56 3 -33 18 -52 18 -22 0 10 -5 45 -11 78 -5 33 -16 107 -24 165 -16 130 -39 267 -64 385 -35 161 -51 262 -51 320 0 31 -5 65 -10 76 -7 13 -7 19 0 19 5 0 10 9 10 19 0 11 5 32 11 48 l11 28 15 -35 c9 -21 16 -75 18 -135 2 -100 11 -154 66 -423 16 -78 29 -158 29 -177 0 -19 5 -35 10 -35 13 0 13 41 0 111 -5 30 -11 65 -14 79 -2 14 -9 48 -16 75 -6 28 -13 61 -15 75 -2 14 -12 68 -22 120 -17 91 -18 199 0 157 4 -10 7 -30 7 -43 0 -13 5 -24 10 -24 6 0 10 -7 10 -16 0 -10 -5 -14 -16 -10 -9 3 -12 2 -9 -5 4 -6 13 -8 19 -6 8 3 27 -18 46 -50 28 -45 35 -69 40 -132 3 -42 11 -85 19 -96 13 -20 13 -20 5 0 -4 11 -9 53 -12 93 -3 57 -1 72 9 70 12 -3 39 -64 41 -95 1 -7 8 -13 15 -13 10 0 12 -7 8 -19 -3 -12 0 -21 10 -25 8 -3 15 -15 15 -26 0 -12 5 -18 10 -15 6 3 10 -1 10 -10 0 -15 5 -26 32 -77 6 -13 18 -35 25 -49 7 -14 22 -34 32 -43 19 -17 19 -20 4 -42 -13 -20 -13 -27 -2 -40 10 -12 10 -15 -2 -12 -9 2 -15 -6 -16 -22 0 -14 -1 -31 -2 -38 -1 -7 -5 -11 -10 -8 -12 8 -23 -22 -14 -37 3 -7 3 -9 -2 -5 -16 15 -100 -124 -97 -162 1 -24 1 -24 -13 -6 -8 11 -15 14 -15 7 0 -7 -5 -9 -12 -5 -7 4 -5 -2 5 -13 19 -22 23 -43 7 -43 -5 0 -10 -9 -10 -19 0 -11 -6 -22 -12 -24 -8 -4 -7 -6 3 -6 9 -1 22 -8 29 -16 13 -16 44 -16 70 0 13 8 13 7 0 -9 -8 -10 -24 -22 -37 -27 -23 -8 -33 -39 -13 -39 6 0 10 7 10 16 0 10 7 14 23 12 17 -2 22 -9 20 -28 -1 -14 1 -20 3 -13 3 7 13 9 22 6 15 -4 15 -3 2 6 -12 9 -9 11 17 11 17 0 39 -3 47 -6 15 -6 15 -8 -1 -20 -16 -13 -15 -13 9 -3 19 8 43 8 90 0 78 -13 110 -14 88 -2 -16 8 -192 40 -245 44 -32 3 -41 24 -15 38 8 5 56 32 105 60 147 84 311 163 465 225 137 55 164 70 155 84 -2 4 22 20 53 37 31 17 99 54 150 81 94 51 117 54 60 8 -18 -15 -38 -30 -44 -35 -7 -5 -20 -11 -30 -13 -10 -2 -30 -15 -46 -30 -16 -16 -33 -28 -38 -28 -5 0 -15 -6 -22 -13 -34 -33 -88 -68 -97 -62 -13 7 -269 -137 -291 -164 -3 -4 -28 -21 -57 -39 -52 -34 -83 -62 -66 -62 5 0 14 5 21 12 9 9 12 8 12 -5 0 -10 -8 -21 -17 -24 -10 -4 -26 -16 -35 -28 -19 -22 -24 -14 -8 16 18 34 3 20 -19 -17 -26 -44 -26 -48 2 -61 21 -10 23 -9 20 10 -3 17 8 31 46 61 53 40 62 49 36 40 -8 -4 -15 -1 -15 5 0 20 4 26 17 23 7 -2 12 3 11 9 -2 7 6 15 16 17 10 2 28 13 39 23 29 26 44 24 21 -3 -17 -21 -16 -21 9 1 28 25 36 38 15 25 -7 -4 -8 -3 -4 4 4 7 13 12 21 12 7 0 15 3 17 8 3 6 46 36 110 75 15 10 32 17 38 17 6 0 20 9 32 20 12 11 24 17 27 15 2 -3 -4 -12 -15 -19 -41 -29 -61 -52 -69 -76 -11 -37 -135 -153 -191 -180 -27 -13 -61 -32 -76 -42 -44 -31 -32 -14 20 27 26 21 39 35 30 32 -26 -9 -118 -80 -118 -90 0 -5 7 -4 15 3 8 6 19 9 25 5 6 -3 50 17 98 46 74 45 118 79 188 147 8 7 14 22 14 32 0 25 94 108 217 191 56 38 105 69 108 69 4 0 21 11 39 25 46 35 52 31 15 -10 -18 -19 -34 -33 -37 -30 -3 2 -19 -12 -36 -32 -45 -52 -98 -103 -108 -103 -5 0 -6 -4 -3 -10 4 -6 -1 -7 -11 -3 -14 5 -16 3 -11 -11 5 -13 3 -17 -7 -13 -9 4 -13 1 -10 -6 3 -8 -6 -13 -23 -15 -27 -2 -68 -31 -58 -40 3 -3 12 3 19 14 10 13 18 16 25 9 7 -7 -7 -25 -44 -55 -30 -25 -55 -49 -55 -53 0 -10 57 29 67 47 5 7 17 18 27 23 31 17 285 273 317 320 43 62 40 70 -36 78 -51 6 -137 -3 -417 -43 -194 -28 -382 -54 -418 -58 -36 -5 -55 -10 -42 -12 15 -2 22 -9 18 -18 -3 -8 -1 -14 3 -14 5 0 11 7 15 15 3 9 18 15 38 15 19 0 99 9 178 21 80 11 168 22 195 25 28 2 61 7 75 10 14 4 41 8 60 11 19 2 51 6 70 9 19 3 60 7 90 9 30 2 73 6 94 10 62 12 38 -7 -102 -81 -70 -37 -176 -93 -237 -125 -60 -31 -177 -87 -260 -124 -82 -36 -184 -86 -225 -109 -92 -53 -204 -106 -224 -106 -8 0 -17 4 -21 9 -3 6 36 92 88 193 122 239 124 245 104 261 -16 12 -125 226 -302 594 -94 193 -118 227 -151 205z m119 -194 c-2 -5 1 -8 6 -8 6 0 11 -8 11 -19 0 -10 6 -24 14 -30 14 -11 11 -51 -4 -51 -4 0 -13 19 -20 43 -7 23 -19 61 -26 85 -19 60 -16 75 5 27 10 -22 16 -43 14 -47z m107 -199 c0 -3 -7 -6 -15 -6 -8 0 -15 7 -15 16 0 9 -7 25 -15 35 -8 11 -15 29 -15 40 0 15 9 6 30 -29 16 -27 30 -53 30 -56z m-220 19 c-1 -26 -3 -30 -10 -16 -6 9 -7 23 -4 32 9 25 14 19 14 -16z m1384 -364 c3 -8 2 -12 -4 -9 -6 3 -10 10 -10 16 0 14 7 11 14 -7z m-1429 -308 c78 -79 151 -147 163 -150 14 -5 23 -19 28 -43 8 -43 -6 -56 -56 -49 -19 3 -93 12 -165 21 -71 9 -247 31 -390 50 -143 19 -303 39 -355 45 -130 15 -311 40 -334 47 -53 15 31 26 272 33 6 0 12 4 12 8 0 5 -24 8 -52 7 -29 -2 -39 -1 -23 2 17 2 37 7 45 10 8 3 23 5 32 4 9 -1 36 4 60 12 24 8 75 18 113 21 39 4 79 10 89 13 14 4 18 1 13 -10 -4 -11 -2 -14 8 -10 8 3 12 9 9 14 -3 5 9 9 25 9 38 0 36 0 91 15 64 19 179 37 190 30 4 -3 15 1 23 9 8 8 17 13 19 11 3 -3 11 6 18 20 7 14 16 25 19 25 3 0 69 -65 146 -144z m1101 125 c-8 -12 -46 -21 -46 -11 0 5 8 11 18 13 29 8 33 7 28 -2z m-969 -387 c-3 -3 -12 -4 -19 -1 -8 3 -5 6 6 6 11 1 17 -2 13 -5z"/> <path d="M1171 1832 c-8 -14 -6 -19 5 -19 7 0 14 9 14 19 0 10 -2 18 -5 18 -2 0 -9 -8 -14 -18z"/> <path d="M1038 1803 c12 -2 30 -2 40 0 9 3 -1 5 -23 4 -22 0 -30 -2 -17 -4z"/> <path d="M978 1793 c6 -2 18 -2 25 0 6 3 1 5 -13 5 -14 0 -19 -2 -12 -5z"/> <path d="M928 1783 c6 -2 18 -2 25 0 6 3 1 5 -13 5 -14 0 -19 -2 -12 -5z"/> <path d="M628 1753 c7 -3 16 -2 19 1 4 3 -2 6 -13 5 -11 0 -14 -3 -6 -6z"/> <path d="M728 1753 c7 -3 16 -2 19 1 4 3 -2 6 -13 5 -11 0 -14 -3 -6 -6z"/> <path d="M668 1743 c7 -3 16 -2 19 1 4 3 -2 6 -13 5 -11 0 -14 -3 -6 -6z"/> <path d="M575 1730 c-18 -8 -17 -9 8 -9 16 -1 26 3 22 9 -3 6 -7 10 -8 9 -1 0 -11 -4 -22 -9z"/> <path d="M628 1733 c7 -3 16 -2 19 1 4 3 -2 6 -13 5 -11 0 -14 -3 -6 -6z"/> <path d="M530 1720 c0 -5 5 -10 10 -10 6 0 10 5 10 10 0 6 -4 10 -10 10 -5 0 -10 -4 -10 -10z"/> <path d="M1335 2260 c4 -6 11 -8 16 -5 14 9 11 15 -7 15 -8 0 -12 -5 -9 -10z"/> <path d="M1620 2200 c8 -5 12 -10 8 -10 -8 0 79 -141 92 -150 4 -3 15 -20 24 -37 19 -38 30 -43 21 -10 -7 22 -58 100 -82 126 -8 7 -23 31 -34 52 -10 21 -25 39 -32 39 -8 0 -7 -4 3 -10z"/> <path d="M2605 2060 c-3 -6 1 -7 9 -4 18 7 21 14 7 14 -6 0 -13 -4 -16 -10z"/> <path d="M2230 2000 l-25 -8 27 -1 c15 -1 30 4 33 9 7 11 0 11 -35 0z"/> <path d="M2293 2003 c9 -2 23 -2 30 0 6 3 -1 5 -18 5 -16 0 -22 -2 -12 -5z"/> <path d="M1537 1983 c-11 -10 -8 -45 3 -38 6 4 10 -9 10 -32 0 -28 -3 -34 -10 -23 -8 12 -10 10 -10 -8 0 -13 4 -21 9 -17 11 6 16 -9 31 -94 6 -35 9 -69 6 -77 -3 -8 1 -14 8 -14 18 0 11 97 -10 153 -8 21 -14 55 -14 75 0 21 0 47 0 60 0 22 -10 28 -23 15z"/> <path d="M2048 1973 c6 -2 18 -2 25 0 6 3 1 5 -13 5 -14 0 -19 -2 -12 -5z"/> <path d="M2008 1963 c7 -3 16 -2 19 1 4 3 -2 6 -13 5 -11 0 -14 -3 -6 -6z"/> <path d="M1882 1924 c-14 -16 -5 -18 17 -5 7 5 9 11 5 14 -5 3 -15 -1 -22 -9z"/> <path d="M2126 1605 c-11 -8 -18 -17 -15 -19 2 -3 15 4 29 14 14 11 21 20 15 19 -5 0 -19 -6 -29 -14z"/> <path d="M2332 1609 c-13 -5 -21 -13 -17 -19 6 -10 45 9 45 22 0 9 2 9 -28 -3z"/> <path d="M2294 1571 c4 -5 1 -12 -4 -14 -6 -3 -5 -4 2 -3 15 3 23 26 8 26 -6 0 -9 -4 -6 -9z"/> <path d="M908 1553 c7 -3 16 -2 19 1 4 3 -2 6 -13 5 -11 0 -14 -3 -6 -6z"/> <path d="M458 1543 c7 -3 16 -2 19 1 4 3 -2 6 -13 5 -11 0 -14 -3 -6 -6z"/> <path d="M655 1531 c-18 -7 -17 -9 12 -24 41 -21 59 -22 39 -1 -9 8 -21 12 -28 8 -8 -5 -9 -2 -5 9 3 10 5 17 4 16 -1 0 -11 -4 -22 -8z"/> <path d="M1101 1489 c-1 -29 4 -38 24 -49 27 -14 41 -49 31 -75 -4 -10 -2 -14 5 -9 6 4 15 0 20 -7 7 -11 9 -10 9 4 0 30 -29 88 -54 108 -14 11 -27 29 -29 42 -3 14 -5 9 -6 -14z"/> <path d="M1615 1510 c-3 -5 -1 -10 4 -10 6 0 11 5 11 10 0 6 -2 10 -4 10 -3 0 -8 -4 -11 -10z"/> <path d="M740 1481 c0 -9 30 -24 36 -18 2 1 -6 8 -16 15 -11 7 -20 8 -20 3z"/> <path d="M2075 1452 c27 -24 42 -53 37 -74 -2 -12 -18 -19 -58 -24 -30 -3 -65 -15 -77 -25 -20 -16 -20 -20 -9 -40 8 -12 23 -37 33 -56 28 -50 101 -146 255 -336 8 -9 14 -20 14 -23 0 -6 59 -80 93 -118 9 -11 17 -25 17 -30 0 -6 -19 12 -42 39 -53 62 -238 247 -342 340 -43 39 -99 90 -125 115 -25 25 -55 51 -66 59 -21 15 98 -104 332 -331 78 -76 158 -159 179 -185 21 -27 59 -70 85 -98 27 -27 55 -66 63 -86 8 -19 23 -42 32 -50 16 -13 16 -12 0 13 -10 16 -14 28 -9 28 6 0 18 -16 29 -35 10 -19 22 -35 27 -35 4 0 6 -4 2 -9 -14 -24 -119 23 -130 60 -4 10 -10 17 -15 14 -5 -3 -7 -12 -3 -20 6 -18 -1 -19 -19 -2 -27 25 -87 67 -97 67 -5 0 -14 6 -18 13 -4 6 -15 12 -23 12 -8 0 -14 5 -13 12 2 7 -4 10 -12 7 -8 -4 -15 -2 -15 3 0 13 -61 56 -79 56 -9 0 -23 5 -31 11 -28 20 -60 36 -74 36 -8 0 -19 6 -23 13 -4 6 -36 26 -70 44 -34 17 -59 34 -55 38 4 4 3 5 -3 4 -11 -4 -103 29 -122 43 -13 10 -103 -29 -103 -45 0 -20 -15 5 -16 26 -1 12 -4 36 -8 52 -4 17 -9 113 -12 214 -2 101 -7 188 -11 194 -8 13 -35 -41 -67 -135 -14 -42 -49 -128 -78 -190 -55 -117 -175 -330 -190 -336 -4 -2 -8 -8 -8 -13 0 -5 -22 -41 -48 -81 -27 -40 -55 -88 -63 -105 -8 -18 -18 -33 -23 -33 -4 0 -6 -10 -3 -22 4 -13 -3 -41 -15 -67 -12 -26 -20 -50 -19 -54 1 -5 -2 -6 -7 -3 -5 3 -19 -8 -31 -25 -12 -16 -27 -27 -33 -23 -7 4 -8 3 -4 -4 4 -7 2 -12 -3 -12 -14 0 -14 6 0 32 8 15 8 22 0 28 -17 10 -2 40 26 51 15 6 23 16 21 26 -1 10 14 47 34 83 20 36 65 121 101 190 36 69 85 159 110 200 77 126 117 208 111 227 -5 15 -4 15 5 3 5 -8 11 -12 13 -10 8 13 31 56 78 149 43 83 51 106 43 124 -9 21 -11 19 -33 -23 -12 -25 -28 -52 -35 -60 -28 -32 -135 -255 -130 -270 3 -9 -3 -28 -13 -41 -17 -21 -193 -338 -203 -364 -14 -38 -63 -113 -70 -109 -5 3 -9 -2 -9 -10 0 -9 -5 -16 -11 -16 -6 0 -9 7 -5 15 3 8 2 15 -3 15 -4 0 -14 -18 -21 -40 -7 -22 -17 -40 -21 -40 -10 0 26 137 41 155 7 8 10 24 7 35 -3 11 -1 18 3 15 5 -3 11 8 15 24 3 16 13 32 21 35 8 3 14 14 14 24 0 11 7 25 15 32 8 7 15 22 14 34 -1 19 -2 19 -10 -4 -6 -18 -7 -12 -4 24 3 28 9 52 13 55 4 4 7 20 6 36 0 17 3 43 7 59 9 30 21 149 21 202 0 45 -11 74 -28 74 -10 0 -14 12 -14 38 0 27 -3 33 -10 22 -16 -25 -11 -45 16 -75 25 -27 26 -31 19 -114 -10 -137 -62 -388 -87 -422 -27 -37 -31 -36 -24 1 3 17 9 44 12 60 3 17 9 28 13 25 5 -2 7 21 5 53 -2 31 0 49 4 39 5 -11 8 12 9 55 1 40 9 113 17 162 9 49 14 91 12 93 -11 11 -30 -96 -91 -491 -58 -381 -60 -393 -46 -415 15 -23 83 13 132 68 23 25 59 66 82 91 48 54 314 335 342 362 40 38 149 112 184 124 46 16 73 7 189 -63 54 -32 136 -78 183 -103 48 -25 151 -86 230 -136 165 -104 204 -121 243 -103 36 17 34 46 -9 153 -41 100 -234 482 -295 581 -22 36 -40 68 -40 71 0 3 -12 22 -26 42 -26 37 -26 37 -19 8 8 -37 26 -77 64 -141 47 -80 71 -128 71 -144 0 -8 3 -11 6 -8 9 9 110 -179 117 -218 1 -5 10 -18 20 -29 10 -12 15 -28 11 -40 -3 -14 -2 -17 3 -8 7 9 14 2 26 -23 9 -20 17 -42 17 -50 0 -8 3 -15 8 -15 8 0 34 -51 28 -57 -4 -4 -38 27 -61 58 -11 14 -62 78 -113 141 -51 64 -107 136 -125 161 -17 25 -72 97 -122 161 -108 139 -138 185 -131 201 4 12 80 32 100 26 6 -1 20 0 33 4 19 4 23 12 23 43 0 46 -8 58 -45 71 -29 11 -30 11 -10 -7z m-559 -179 c-8 -16 -22 -36 -31 -43 -13 -11 -11 -4 5 25 32 57 32 57 37 52 2 -3 -2 -18 -11 -34z m70 -10 c0 -27 1 -114 3 -195 2 -81 0 -152 -4 -157 -3 -6 -1 -11 4 -11 6 0 11 6 11 13 0 8 4 7 10 -3 16 -25 11 -30 -17 -19 -25 9 -32 5 -98 -61 -71 -71 -72 -71 -79 -46 -4 16 -11 24 -17 20 -8 -4 -7 -9 1 -14 7 -4 9 -13 6 -19 -4 -6 -1 -11 6 -11 7 0 -16 -27 -52 -60 -36 -32 -67 -57 -69 -55 -2 3 8 20 23 39 15 20 26 38 26 41 -1 11 25 33 34 27 5 -3 6 0 2 7 -10 16 -27 2 -63 -52 -47 -70 -134 -187 -139 -187 -8 0 72 120 155 234 19 27 36 56 37 64 2 7 14 31 28 53 14 21 26 41 26 44 0 4 11 30 24 58 49 104 96 222 102 257 5 29 28 80 37 80 1 0 2 -21 3 -47z m-118 -79 c-7 -15 -14 -21 -16 -15 -5 16 5 41 17 41 7 0 6 -10 -1 -26z m-34 -58 c-3 -14 -10 -26 -15 -26 -12 0 -11 4 3 35 14 31 21 26 12 -9z m-46 -83 c-8 -10 -18 -27 -23 -38 -5 -14 -9 -16 -12 -7 -3 7 5 24 18 38 26 27 40 33 17 7z m213 -179 c17 -16 16 -18 -22 -44 -37 -24 -193 -170 -183 -170 3 0 -32 -37 -78 -82 -45 -46 -86 -82 -90 -80 -5 1 -7 -2 -6 -6 2 -5 -11 -24 -29 -43 -17 -19 -43 -47 -57 -64 l-26 -30 15 30 c8 17 15 40 15 53 0 31 28 62 224 253 94 92 178 174 186 183 18 20 29 20 51 0z m818 -188 c-3 -3 -11 5 -18 17 -13 21 -12 21 5 5 10 -10 16 -20 13 -22z m25 -22 c3 -8 2 -12 -4 -9 -6 3 -10 10 -10 16 0 14 7 11 14 -7z m41 -54 c10 -11 16 -20 13 -20 -3 0 -13 9 -23 20 -10 11 -16 20 -13 20 3 0 13 -9 23 -20z m-1450 -198 c-7 -20 -19 -38 -26 -41 -8 -2 -10 2 -5 15 9 21 14 43 15 61 1 7 7 10 15 7 11 -4 11 -11 1 -42z m68 -77 c-3 -9 -8 -14 -10 -11 -3 3 -2 9 2 15 9 16 15 13 8 -4z"/> <path d="M1407 849 c7 -7 15 -10 18 -7 3 3 -2 9 -12 12 -14 6 -15 5 -6 -5z"/> <path d="M1380 825 c-11 -13 -10 -14 4 -9 9 3 16 10 16 15 0 13 -6 11 -20 -6z"/> <path d="M790 1451 c0 -6 14 -17 30 -26 17 -9 30 -11 30 -6 0 6 -13 17 -30 26 -16 9 -30 11 -30 6z"/> <path d="M1560 1449 c0 -5 5 -7 10 -4 6 3 10 8 10 11 0 2 -4 4 -10 4 -5 0 -10 -5 -10 -11z"/> <path d="M1590 1442 c-8 -9 -15 -23 -15 -32 0 -17 -26 -21 -37 -5 -5 6 -8 3 -8 -7 0 -21 16 -32 24 -16 4 7 4 3 2 -9 -7 -39 12 -25 26 20 32 94 58 45 78 -148 7 -60 18 -137 26 -170 14 -60 43 -125 55 -125 4 0 10 -11 13 -24 4 -18 14 -25 43 -29 21 -3 47 -8 58 -12 17 -6 16 -5 -3 10 -13 9 -29 18 -35 19 -7 1 -18 5 -24 9 -7 5 -13 5 -13 0 0 -9 -23 28 -41 67 -6 14 -17 36 -24 50 -15 29 -25 84 -30 154 -2 28 -6 65 -9 81 -3 17 -10 52 -15 79 -5 27 -7 56 -4 63 5 14 -23 42 -42 42 -5 0 -17 -7 -25 -17z"/> <path d="M941 1357 c84 -52 147 -82 157 -73 4 5 -43 27 -86 40 -12 4 -22 11 -22 16 0 9 -79 55 -113 65 -12 4 17 -17 64 -48z"/> <path d="M778 1393 c7 -3 16 -2 19 1 4 3 -2 6 -13 5 -11 0 -14 -3 -6 -6z"/> <path d="M1277 1389 c7 -7 15 -10 18 -7 3 3 -2 9 -12 12 -14 6 -15 5 -6 -5z"/> <path d="M2060 1390 c0 -5 5 -10 10 -10 6 0 10 5 10 10 0 6 -4 10 -10 10 -5 0 -10 -4 -10 -10z"/> <path d="M1434 1343 c-38 -26 -71 -51 -74 -54 -3 -3 -12 -9 -20 -12 -12 -4 -11 -6 3 -6 10 -1 23 4 30 9 7 6 40 28 74 50 60 38 83 60 66 60 -5 0 -40 -21 -79 -47z"/> <path d="M1740 1320 c0 -5 9 -14 20 -20 11 -6 20 -7 20 -3 0 5 -9 14 -20 21 -11 7 -20 8 -20 2z"/> <path d="M1730 1293 c1 -10 50 -46 56 -41 2 3 -10 14 -26 27 -17 12 -30 18 -30 14z"/> <path d="M950 1280 c0 -5 5 -10 10 -10 6 0 10 5 10 10 0 6 -4 10 -10 10 -5 0 -10 -4 -10 -10z"/> <path d="M1185 1220 c-16 -7 -17 -9 -3 -9 9 -1 20 4 23 9 7 11 7 11 -20 0z"/> <path d="M1872 1143 c40 -43 86 -91 102 -108 16 -16 51 -57 79 -90 27 -33 71 -81 98 -107 27 -26 49 -52 49 -58 0 -5 6 -10 13 -10 15 0 131 -130 123 -137 -3 -3 -20 7 -39 21 -19 14 -38 26 -42 26 -5 0 -17 7 -27 17 -10 9 -21 13 -25 10 -8 -9 19 -30 75 -59 24 -12 51 -35 60 -50 12 -21 21 -26 37 -22 11 4 22 8 24 10 8 8 -59 85 -174 199 -66 66 -145 149 -175 185 -65 77 -65 76 -159 173 -40 43 -78 77 -83 77 -4 0 24 -35 64 -77z"/> <path d="M1386 1191 c-4 -7 -5 -15 -2 -18 9 -9 19 4 14 18 -4 11 -6 11 -12 0z"/> <path d="M1370 1149 c0 -5 5 -7 10 -4 6 3 10 8 10 11 0 2 -4 4 -10 4 -5 0 -10 -5 -10 -11z"/> <path d="M1343 1112 c0 -12 4 -22 8 -22 9 0 21 31 14 38 -3 3 -5 -1 -5 -9 0 -12 -2 -11 -10 1 -7 12 -9 10 -7 -8z"/> <path d="M1330 1065 c0 -8 -4 -15 -10 -15 -5 0 -10 -5 -10 -11 0 -14 18 -2 30 22 7 13 7 19 0 19 -5 0 -10 -7 -10 -15z"/> <path d="M1690 970 c0 -5 5 -10 11 -10 5 0 7 5 4 10 -3 6 -8 10 -11 10 -2 0 -4 -4 -4 -10z"/> <path d="M1880 872 c0 -4 24 -18 53 -31 28 -13 68 -31 87 -42 24 -12 40 -15 50 -9 12 8 11 10 -5 10 -11 0 -31 9 -45 20 -14 11 -32 20 -40 20 -8 0 -32 9 -53 20 -41 22 -47 24 -47 12z"/> <path d="M1150 830 c0 -5 5 -10 11 -10 5 0 7 5 4 10 -3 6 -8 10 -11 10 -2 0 -4 -4 -4 -10z"/> <path d="M1138 803 c7 -3 16 -2 19 1 4 3 -2 6 -13 5 -11 0 -14 -3 -6 -6z"/> <path d="M2160 750 c0 -5 10 -14 21 -21 15 -8 19 -8 15 0 -4 6 -1 11 6 11 9 0 9 3 -2 10 -19 13 -40 13 -40 0z"/> <path d="M1080 635 c0 -8 5 -15 10 -15 6 0 10 7 10 15 0 8 -4 15 -10 15 -5 0 -10 -7 -10 -15z"/> <path d="M1053 553 c-13 -31 -21 -59 -18 -61 7 -7 46 89 43 105 -2 7 -13 -12 -25 -44z"/> </g> </svg> 